HIERARCHY
ROOT hip
{
	OFFSET 0.000000 0.000000 0.000000 
	CHANNELS 6 Xposition Yposition Zposition Xrotation Zrotation Yrotation
	JOINT abdomen
	{
		OFFSET 0.000000 3.402643 0.000000 
		CHANNELS 3 Xrotation Zrotation Yrotation
		JOINT chest
		{
			OFFSET 0.000000 8.438565 -0.680529 
			CHANNELS 3 Xrotation Zrotation Yrotation
			JOINT neck
			{
				OFFSET 0.000000 10.207942 -0.272212 
				CHANNELS 3 Xrotation Zrotation Yrotation
				JOINT head
				{
					OFFSET 0.000000 3.130431 0.000000 
					CHANNELS 3 Xrotation Zrotation Yrotation
					End Site
					{
						OFFSET 0.000000 3.130435 0.000000 
					}
				}
			}
			JOINT lCollar
			{
				OFFSET 3.470700 6.669187 -0.816635 
				CHANNELS 3 Yrotation Zrotation Xrotation
				JOINT lShldr
				{
					OFFSET 3.198488 0.000000 0.000000 
					CHANNELS 3 Zrotation Yrotation Xrotation
					JOINT lForeArm
					{
						OFFSET 10.139888 0.000000 0.000000 
						CHANNELS 3 Yrotation Zrotation Xrotation
						JOINT lHand
						{
							OFFSET 8.370511 0.000000 0.000000 
							CHANNELS 3 Zrotation Yrotation Xrotation
							End Site
							{
								OFFSET 4.083176 0.000000 0.000000 
							}
						}
					}
				}
			}
			JOINT rCollar
			{
				OFFSET -3.470700 6.669187 -0.816635 
				CHANNELS 3 Yrotation Zrotation Xrotation
				JOINT rShldr
				{
					OFFSET -3.198488 0.000000 0.000000 
					CHANNELS 3 Zrotation Yrotation Xrotation
					JOINT rForeArm
					{
						OFFSET -10.139888 0.000000 0.000000 
						CHANNELS 3 Yrotation Zrotation Xrotation
						JOINT rHand
						{
							OFFSET -8.370511 0.000000 0.000000 
							CHANNELS 3 Zrotation Yrotation Xrotation
							End Site
							{
								OFFSET -4.083176 0.000000 0.000000 
							}
						}
					}
				}
			}
		}
	}
	JOINT lThigh
	{
		OFFSET 5.308129 -1.633274 1.361059 
		CHANNELS 3 Xrotation Zrotation Yrotation
		JOINT lShin
		{
			OFFSET -2.041588 -20.007561 0.000000 
			CHANNELS 3 Xrotation Zrotation Yrotation
			JOINT lFoot
			{
				OFFSET 0.000000 -19.190928 -1.224953 
				CHANNELS 3 Xrotation Yrotation Zrotation
				End Site
				{
					OFFSET 0.000000 -2.449906 4.627600 
				}
			}
		}
	}
	JOINT rThigh
	{
		OFFSET -5.308129 -1.633274 1.361059 
		CHANNELS 3 Xrotation Zrotation Yrotation
		JOINT rShin
		{
			OFFSET 2.041588 -20.007561 0.000000 
			CHANNELS 3 Xrotation Zrotation Yrotation
			JOINT rFoot
			{
				OFFSET 0.000000 -19.190928 -1.224953 
				CHANNELS 3 Xrotation Yrotation Zrotation
				End Site
				{
					OFFSET 0.000000 -2.449906 4.627600 
				}
			}
		}
	}
}
MOTION
Frames: 15
Frame Time: 0.033333
0.959192 50.622269 2.050992 1.873007 -2.294821 0.537461 0.000000 0.000000 0.000000 5.840024 1.270863 6.583870 23.457628 1.748047 0.019820 -3.752506 -1.989424 -3.019487 -0.627657 -0.739432 24.657333 -56.593487 -20.803179 -17.695688 -39.395786 -36.996613 107.419937 -22.870331 10.029416 -61.521126 -19.140005 -2.292479 23.672764 33.562088 23.825644 48.269173 66.873459 -7.115866 45.436111 42.857693 -28.510725 -80.706841 11.172551 1.036664 17.197384 11.392251 0.645086 0.193798 -3.184234 -8.108045 14.846548 12.796809 2.421364 1.609784 0.908179 3.356264 0.049240 7.711866 -8.589769 2.580422 
0.937743 50.621216 2.037948 1.470550 -2.362888 1.045644 0.000000 0.000000 0.000000 6.079998 1.319370 6.583876 23.430061 2.275389 0.058935 -3.879487 -2.046388 -3.752487 -1.467873 -0.524483 24.688723 -53.796921 -23.897551 -18.793854 -39.541473 -36.691231 107.251785 -23.147709 11.545739 -62.174187 -20.026474 -2.388114 23.593485 30.622562 26.427021 46.258633 65.448059 -7.119893 40.186039 40.798767 -33.219090 -79.558311 11.105176 1.202235 17.278584 12.113851 0.840233 0.197094 -3.343420 -8.682790 14.565882 13.308792 2.509726 1.634929 0.702661 3.365126 0.015804 7.790694 -9.188025 1.740063 
0.854696 50.604107 1.933270 1.498889 -2.587331 1.192396 0.000000 0.000000 0.000000 6.046470 1.445400 6.613649 23.353020 2.499998 0.078477 -4.065026 -2.016354 -4.084653 -1.509873 0.197107 24.720022 -50.085617 -27.762554 -20.296576 -39.940704 -35.785065 104.354004 -23.539278 14.317659 -63.516430 -20.770935 -2.732678 23.416830 27.293253 29.370489 43.917835 63.921131 -7.836153 32.641155 37.200699 -38.418831 -77.564636 10.087783 1.680743 17.437231 13.696139 1.016361 0.165809 -4.064698 -8.862126 14.544563 12.993790 2.978099 1.775981 0.937996 3.113808 0.005341 7.770993 -9.541183 1.202487 
0.754533 50.574345 1.758945 1.890134 -2.626594 0.948061 0.000000 0.000000 0.000000 5.699048 1.396897 6.613402 23.391493 2.363280 0.068704 -4.295129 -1.860791 -3.957429 -0.628964 1.344597 24.694660 -44.999466 -32.175491 -22.455048 -41.652882 -34.794956 100.757431 -24.957298 17.723648 -65.410065 -21.120419 -3.301739 23.167246 23.058506 32.355556 41.026489 62.944939 -10.142877 26.399849 34.477474 -41.560188 -76.017006 8.374377 1.982440 17.640617 15.724627 1.327620 0.064974 -4.934109 -8.655826 14.435003 12.065975 3.368338 1.905951 1.434654 2.732620 -0.048481 7.714905 -9.594334 0.744587 
0.699377 50.529366 1.590670 2.325019 -2.353343 0.693576 0.000000 0.000000 0.000000 5.219606 1.144792 6.563916 23.732317 2.167968 0.049163 -4.326528 -1.714776 -3.898243 0.512978 2.608586 24.616968 -38.175903 -36.350307 -25.411173 -44.704487 -33.282673 95.806580 -25.719076 19.996220 -66.650208 -21.332117 -4.129474 22.812489 17.462078 35.143669 37.417500 62.092705 -13.938806 22.201515 33.414085 -43.038532 -75.389946 6.657332 1.836180 17.647381 17.719637 1.893858 0.059663 -5.592295 -8.638551 13.718554 11.097570 3.221596 1.861018 1.940904 2.622744 -0.026720 7.924728 -9.301476 1.114520 
0.667958 50.499996 1.503358 2.342846 -2.031147 0.576502 0.000000 0.000000 0.000000 4.941773 0.941114 6.534243 24.386572 2.119140 0.049156 -3.899630 -1.880028 -4.064795 1.624807 3.690003 24.490446 -28.584017 -39.197304 -29.429369 -47.820469 -31.106361 88.920227 -22.315933 22.411930 -66.539955 -21.809519 -5.193353 22.335098 10.435180 38.132824 32.871902 60.026611 -17.167051 16.460623 30.691547 -44.635204 -74.069771 5.480971 1.521938 17.564039 19.585485 2.586224 0.115503 -6.310213 -8.549287 12.706202 10.555631 2.695258 1.724108 2.748196 3.098394 0.093776 7.678295 -9.043125 1.256873 
0.638385 50.508942 1.481536 1.942700 -1.767463 0.654588 0.000000 0.000000 0.000000 5.103655 0.824752 6.494870 24.981960 2.187500 0.039407 -3.588954 -2.142396 -4.300072 2.539609 4.525443 24.366659 -17.593855 -40.497147 -33.626434 -51.265350 -27.082644 80.770248 -19.403746 24.670689 -66.243851 -22.510473 -6.113328 21.860767 1.722188 40.486664 27.591940 56.969292 -19.958975 9.597198 27.316854 -46.151501 -72.447052 4.838601 1.376337 17.528778 21.380182 3.001695 0.079723 -7.570452 -8.197273 13.231611 11.009479 2.382041 1.620451 2.741283 3.246113 0.123312 7.256170 -8.949895 0.846666 
0.596020 50.518597 1.494085 1.529662 -1.650229 0.801012 0.000000 0.000000 0.000000 5.264472 0.863547 6.504784 25.460508 2.236328 0.039414 -3.446391 -2.141949 -4.456576 3.299720 5.306050 24.233395 -6.135171 -39.988068 -37.170429 -54.418114 -21.159693 72.205719 -17.420591 26.500881 -65.952850 -23.344835 -7.196005 21.260864 -7.210943 41.666908 22.754923 53.293205 -23.563351 3.357447 25.596054 -47.176777 -71.498878 4.110972 1.474772 17.575001 23.386818 3.523991 0.084997 -7.557954 -8.637196 12.441823 11.617945 2.216711 1.562236 2.534483 3.409590 0.159152 6.659859 -8.987241 -0.028972 
0.532893 50.508232 1.527827 1.261723 -1.572028 0.996255 0.000000 0.000000 0.000000 5.301178 0.844157 6.494871 25.753969 2.363281 0.049189 -3.493538 -1.985850 -4.573315 3.925125 6.275739 24.088434 4.833889 -37.616169 -39.250198 -56.617813 -13.823520 63.712414 -15.996049 28.281300 -65.659950 -24.258476 -8.336721 20.592155 -16.232162 41.356125 19.054550 49.081936 -27.693941 -3.808767 24.483545 -48.129299 -70.694725 2.956158 1.687679 17.661200 25.867418 4.351036 0.094498 -5.304982 -10.241772 7.865041 12.055209 2.021253 1.501346 2.478803 3.793434 0.224860 5.932348 -9.161237 -1.155246 
0.443835 50.473557 1.578892 1.121834 -1.454758 1.201528 0.000000 0.000000 0.000000 5.238480 0.640445 6.455546 25.853260 2.675779 0.078496 -3.579581 -2.014291 -4.837170 4.526155 7.510687 23.905066 14.611921 -33.653606 -39.601463 -57.408695 -5.874092 55.533607 -14.395534 30.083958 -65.136810 -25.144051 -9.270976 19.974520 -24.978832 39.813103 16.991287 43.672127 -31.717476 -13.189290 22.409513 -48.853123 -69.591423 1.432629 1.898663 17.739361 28.994431 5.268408 0.139823 -1.827281 -12.464046 -0.076564 12.323624 1.855732 1.438449 2.459440 4.116582 0.273330 5.406880 -9.378757 -2.050145 
0.323090 50.427914 1.647658 0.897869 -1.523145 1.123429 0.000000 0.000000 0.000000 5.329349 0.582245 6.435907 25.796917 3.144526 0.107796 -3.467156 -2.652990 -5.670177 5.373381 8.728344 23.652161 22.702290 -28.717632 -38.544773 -56.491486 2.054914 48.313305 -12.502690 30.885992 -64.125122 -25.868929 -9.935052 19.494062 -32.518787 38.388557 15.871716 35.156502 -35.023548 -23.152046 20.393339 -47.874493 -69.420250 -0.078340 2.334336 17.876211 32.249474 5.590664 0.049817 -0.648789 -13.167773 -6.549510 12.719669 2.353184 1.600379 2.333135 3.550679 0.126085 5.652664 -9.045817 -1.817933 
0.104332 50.387291 1.759669 0.421592 -2.636706 0.175595 0.000000 0.000000 0.000000 5.791560 1.833097 6.702960 25.919891 2.255858 0.049175 -3.367704 -2.111721 -4.798495 6.692658 9.304196 23.340002 27.583818 -23.197994 -36.818413 -55.411968 9.321208 41.837753 -12.251252 31.524372 -63.946621 -26.128096 -10.817484 19.002687 -39.815269 35.083538 17.687534 27.329166 -38.178188 -36.088474 19.627869 -48.258030 -68.851089 -1.152579 4.695018 18.625593 36.107857 5.238650 -0.285854 -3.344585 -12.248107 -4.399611 13.211924 3.955199 2.050550 2.681930 3.206384 0.138726 5.110450 -8.512365 -3.646583 
-0.049675 50.363045 1.867191 0.190132 -3.007715 -0.459889 0.000000 0.000000 0.000000 5.770871 2.133461 6.772317 26.554226 2.187500 0.039407 -3.707850 -2.532050 -4.262277 7.341358 10.191804 23.100693 30.772453 -17.846270 -35.216248 -53.934605 14.839115 37.329697 -11.687985 33.075031 -63.643353 -25.894297 -11.388511 18.771315 -45.127834 31.827269 20.617579 18.284540 -39.239021 -47.861145 18.812042 -47.775528 -68.710976 -3.007583 5.926289 19.022886 40.488594 5.634413 -0.449748 -3.988862 -11.751463 -4.120798 13.424013 4.559533 2.231877 3.131613 3.180295 0.168133 4.514767 -8.081001 -4.672604 
-0.104169 50.338223 1.964230 0.137333 -2.460855 -0.469576 0.000000 0.000000 0.000000 5.535027 1.493844 6.633178 27.298141 2.695311 0.068743 -4.145041 -2.921408 -4.312480 7.372144 11.482343 22.929724 32.811619 -13.016390 -33.972515 -52.047657 18.908371 33.667709 -10.087389 34.286942 -62.753403 -25.903334 -11.879171 18.525572 -48.590305 28.768221 23.852322 10.215864 -38.536472 -57.928623 17.048758 -46.987831 -68.431595 -6.050984 5.842156 18.878611 45.931515 6.880888 -0.458837 -2.931182 -11.785452 -5.769317 13.542889 3.944965 2.055434 3.278316 3.472800 0.210114 4.043893 -7.940986 -5.024834 
-0.122596 50.312222 2.061169 0.090393 -1.630857 -0.088133 0.000000 0.000000 0.000000 5.550870 0.640457 6.445781 27.612768 3.134761 0.098044 -4.412552 -2.968378 -4.733355 7.627217 12.712116 22.696733 34.417938 -8.844694 -33.006371 -49.697971 22.114468 29.970427 -7.899907 34.778976 -61.494099 -26.503672 -12.286698 18.156939 -51.372246 25.776522 27.130762 3.588669 -36.898460 -66.741486 15.268142 -46.109005 -68.207321 -9.803979 5.370455 18.508562 51.960224 8.347444 -0.409136 -1.005217 -11.769519 -7.740499 13.877986 2.947790 1.751182 3.025936 3.844637 0.273914 3.817310 -7.867525 -4.690463 
